<svg width="428" height="96" viewBox="0 0 428 96" fill="none" xmlns="http://www.w3.org/2000/svg">
<path d="M0.558189 6.24106H31.316C36.9528 6.24106 42.6306 6.9763 48.3491 8.44679C54.0677 9.91728 59.2144 12.3681 63.7893 15.7992C68.3641 19.1487 72.0812 23.601 74.9405 29.1562C77.7998 34.6297 79.2294 41.4511 79.2294 49.6205C79.2294 57.2181 77.7998 63.7536 74.9405 69.2271C72.0812 74.7006 68.3641 79.1937 63.7893 82.7066C59.2144 86.2194 54.0677 88.8336 48.3491 90.5492C42.6306 92.1831 36.9528 93 31.316 93H0.558189V6.24106ZM28.8651 79.5205C32.8681 79.5205 36.8711 79.0712 40.8741 78.1726C44.8771 77.1922 48.4717 75.5992 51.6577 73.3935C54.9255 71.106 57.5805 68.0425 59.6229 64.2029C61.6652 60.3633 62.6864 55.5025 62.6864 49.6205C62.6864 43.4118 61.6652 38.3468 59.6229 34.4255C57.5805 30.5041 54.9255 27.4406 51.6577 25.2349C48.4717 23.0292 44.8771 21.5178 40.8741 20.7009C36.8711 19.8839 32.8681 19.4755 28.8651 19.4755H15.9983V79.5205H28.8651ZM90.3404 34.1804H104.433V43.9836H104.678C106.312 40.5525 108.599 37.7749 111.54 35.6509C114.481 33.5268 117.912 32.4648 121.833 32.4648C122.405 32.4648 123.018 32.5057 123.672 32.5873C124.325 32.5873 124.897 32.669 125.387 32.8324V46.3119C124.407 46.0668 123.549 45.9035 122.814 45.8218C122.16 45.7401 121.507 45.6992 120.853 45.6992C117.504 45.6992 114.808 46.3119 112.765 47.5373C110.723 48.7627 109.13 50.2332 107.986 51.9488C106.843 53.6644 106.067 55.4208 105.658 57.2181C105.25 59.0153 105.045 60.445 105.045 61.507V93H90.3404V34.1804ZM132.158 34.1804H146.863V93H132.158V34.1804ZM130.075 14.2062C130.075 11.8371 130.933 9.79474 132.649 8.07917C134.446 6.2819 136.692 5.38327 139.388 5.38327C142.084 5.38327 144.331 6.24106 146.128 7.95663C148.007 9.59051 148.947 11.6737 148.947 14.2062C148.947 16.7387 148.007 18.8628 146.128 20.5783C144.331 22.2122 142.084 23.0292 139.388 23.0292C136.692 23.0292 134.446 22.1714 132.649 20.4558C130.933 18.6585 130.075 16.5753 130.075 14.2062ZM161.639 34.1804H175.609V43.616H175.854C177.161 40.675 179.408 38.1017 182.594 35.8959C185.861 33.6085 189.701 32.4648 194.112 32.4648C197.952 32.4648 201.22 33.1592 203.916 34.548C206.693 35.8551 208.94 37.6115 210.655 39.8173C212.453 42.023 213.76 44.5555 214.577 47.4148C215.394 50.2741 215.802 53.2151 215.802 56.2377V93H201.097V60.4041C201.097 58.6886 200.975 56.8913 200.73 55.0123C200.485 53.1334 199.954 51.4586 199.137 49.9882C198.32 48.436 197.176 47.1697 195.706 46.1894C194.317 45.2091 192.438 44.7189 190.069 44.7189C187.699 44.7189 185.657 45.2091 183.942 46.1894C182.226 47.088 180.796 48.2726 179.653 49.7431C178.591 51.2136 177.774 52.9291 177.202 54.8898C176.63 56.7687 176.344 58.6886 176.344 60.6492V93H161.639V34.1804ZM230.143 0.359091H244.848V58.9336H245.216L267.518 34.1804H286.39L260.901 60.7717L287.983 93H268.499L245.216 62.8549H244.848V93H230.143V0.359091ZM293.616 34.1804H308.321V93H293.616V34.1804ZM291.532 14.2062C291.532 11.8371 292.39 9.79474 294.106 8.07917C295.903 6.2819 298.15 5.38327 300.846 5.38327C303.541 5.38327 305.788 6.24106 307.585 7.95663C309.464 9.59051 310.404 11.6737 310.404 14.2062C310.404 16.7387 309.464 18.8628 307.585 20.5783C305.788 22.2122 303.541 23.0292 300.846 23.0292C298.15 23.0292 295.903 22.1714 294.106 20.4558C292.39 18.6585 291.532 16.5753 291.532 14.2062ZM427.379 88.466C422.967 90.59 418.106 92.2239 412.796 93.3676C407.568 94.593 401.522 95.2057 394.66 95.2057C387.635 95.2057 381.222 94.1029 375.421 91.8971C369.621 89.6097 364.638 86.4645 360.471 82.4615C356.305 78.3768 353.037 73.5568 350.668 68.0017C348.381 62.3648 347.237 56.156 347.237 49.3754C347.237 42.4315 348.421 36.1819 350.791 30.6267C353.241 24.9898 356.55 20.2107 360.716 16.2894C364.964 12.3681 369.948 9.34542 375.666 7.22138C381.385 5.09734 387.594 4.03532 394.293 4.03532C401.237 4.03532 407.568 5.05649 413.286 7.09884C419.087 9.05949 423.743 11.6737 427.256 14.9415L416.595 26.4603C414.389 24.0095 411.285 21.9263 407.282 20.2107C403.361 18.4951 399.072 17.6374 394.415 17.6374C389.84 17.6374 385.674 18.4543 381.916 20.0882C378.24 21.7221 375.094 23.9686 372.48 26.8279C369.866 29.6872 367.824 33.0367 366.353 36.8763C364.964 40.7159 364.27 44.8823 364.27 49.3754C364.27 54.032 364.964 58.3209 366.353 62.2422C367.824 66.0819 369.866 69.4313 372.48 72.2906C375.176 75.1499 378.403 77.3965 382.161 79.0303C386.001 80.5825 390.33 81.3586 395.15 81.3586C401.768 81.3586 407.527 80.3374 412.429 78.2951V56.2377H394.17V43.4935H427.379V88.466Z" fill="#7E13B1"/>
</svg>
