<svg width="126" height="126" viewBox="0 0 126 126" fill="none" xmlns="http://www.w3.org/2000/svg">
<path d="M123.891 65.164L118.626 57.9392L117.934 56.9891L116.983 57.6794C106.242 65.4705 92.962 65.4705 82.2218 57.6794L82.1934 57.6588L82.1638 57.6399C67.5592 48.3198 49.9637 48.8306 35.6959 59.1775L34.7412 59.8698L35.4346 60.8238L41.0382 68.5328L41.7306 69.4853L42.6834 68.7933C53.4094 61.0029 66.7031 61.0024 77.4435 68.7937L77.4725 68.8148L77.5028 68.8341C84.403 73.2244 91.9968 75.4742 99.609 75.4742C103.602 75.4742 107.577 74.8378 111.455 73.6227C106.44 95.5787 86.7634 112.004 63.2876 112.004C36.0416 112.004 13.8693 89.8525 13.8693 62.6373C13.8693 35.4212 36.0288 13.257 63.274 13.257C84.6975 13.257 102.971 26.9441 109.817 46.0234L110.172 47.0144L111.197 46.772L120.522 44.5655L121.782 44.2675L121.367 43.0415C113.18 18.8521 90.2455 1.36678 63.274 1.36678C29.4663 1.36678 1.95577 28.8475 1.95577 62.6237C1.95577 96.3998 29.4663 123.881 63.274 123.881C96.9165 123.881 122.257 98.6478 124.438 66.8616L124.837 66.463L124.493 65.9911L124.544 65.164H123.891Z" fill="#7E13B1" stroke="#7E13B1" stroke-width="2.35603"/>
</svg>
