<svg width="224" height="40" viewBox="0 0 224 40" fill="none" xmlns="http://www.w3.org/2000/svg">
<path d="M0.305676 1.76972H15.7401C18.5906 1.76972 21.0587 2.25639 23.1444 3.22973C25.2301 4.20307 26.9335 5.54141 28.2545 7.24476C29.5754 8.91334 30.5488 10.8774 31.1745 13.1369C31.835 15.3965 32.1652 17.8125 32.1652 20.3849C32.1652 22.9573 31.835 25.3732 31.1745 27.6328C30.5488 29.8923 29.5754 31.8738 28.2545 33.5771C26.9335 35.2457 25.2301 36.5666 23.1444 37.54C21.0587 38.5133 18.5906 39 15.7401 39H0.305676V1.76972ZM6.82358 33.6814H13.2372C15.7748 33.6814 17.8432 33.3511 19.4422 32.6907C21.0761 31.9954 22.3449 31.0568 23.2487 29.8749C24.1873 28.6583 24.813 27.2504 25.1259 25.6513C25.4735 24.0175 25.6473 22.262 25.6473 20.3849C25.6473 18.5077 25.4735 16.7696 25.1259 15.1705C24.813 13.5367 24.1873 12.1288 23.2487 10.9469C22.3449 9.73025 21.0761 8.79168 19.4422 8.1312C17.8432 7.43595 15.7748 7.08833 13.2372 7.08833H6.82358V33.6814ZM37.9196 1.76972H55.7005C59.8024 1.76972 62.8789 2.65615 64.9298 4.42902C66.9808 6.20189 68.0063 8.67001 68.0063 11.8334C68.0063 13.6062 67.7456 15.0836 67.2241 16.2655C66.7027 17.4127 66.0944 18.3513 65.3991 19.0813C64.7039 19.7765 64.0086 20.2806 63.3134 20.5934C62.6529 20.9063 62.1662 21.1149 61.8534 21.2192V21.3234C62.4096 21.393 63.0005 21.5668 63.6263 21.8449C64.2867 22.123 64.8951 22.5749 65.4513 23.2006C66.0075 23.7916 66.4594 24.5737 66.807 25.547C67.1894 26.5204 67.3806 27.7371 67.3806 29.1971C67.3806 31.3871 67.537 33.3859 67.8499 35.1935C68.1975 36.9664 68.7189 38.2352 69.4142 39H62.427C61.9403 38.2005 61.6448 37.314 61.5405 36.3407C61.471 35.3674 61.4362 34.4288 61.4362 33.525C61.4362 31.8216 61.3319 30.3616 61.1234 29.1449C60.9148 27.8935 60.5324 26.868 59.9762 26.0685C59.42 25.2342 58.6553 24.6258 57.6819 24.2435C56.7433 23.8611 55.5267 23.6699 54.0319 23.6699H44.4375V39H37.9196V1.76972ZM44.4375 18.7163H55.1269C57.2126 18.7163 58.7943 18.2296 59.8719 17.2563C60.9496 16.2482 61.4884 14.7534 61.4884 12.7719C61.4884 11.59 61.3146 10.6341 60.9669 9.90407C60.6193 9.1393 60.1327 8.54834 59.5069 8.1312C58.916 7.71405 58.2207 7.43595 57.4212 7.2969C56.6564 7.15785 55.8569 7.08833 55.0226 7.08833H44.4375V18.7163ZM74.617 1.76972H81.1349V39H74.617V1.76972ZM88.852 1.76972H95.7349L112.734 29.1971H112.838V1.76972H119.043V39H112.16L95.2135 11.6248H95.0571V39H88.852V1.76972ZM126.727 1.76972H133.245V18.7163L149.826 1.76972H157.856L142.995 16.6305L158.899 39H150.765L138.563 21.2192L133.245 26.4856V39H126.727V1.76972ZM162.406 1.76972H168.924V39H162.406V1.76972ZM223.882 39H219.711L218.72 34.62C216.982 36.6014 215.244 37.9745 213.506 38.7393C211.768 39.5041 209.769 39.8864 207.509 39.8864C204.728 39.8864 202.226 39.3824 200.001 38.3743C197.811 37.3314 195.951 35.9235 194.421 34.1507C192.892 32.3778 191.71 30.3095 190.876 27.9456C190.076 25.5818 189.676 23.0615 189.676 20.3849C189.676 17.7429 190.076 15.2401 190.876 12.8762C191.71 10.5124 192.892 8.44406 194.421 6.67119C195.951 4.89831 197.811 3.49045 200.001 2.44758C202.226 1.40472 204.728 0.883284 207.509 0.883284C209.526 0.883284 211.438 1.16138 213.245 1.71757C215.088 2.23901 216.721 3.03854 218.147 4.11616C219.572 5.15903 220.754 6.47999 221.692 8.07905C222.631 9.67811 223.222 11.5205 223.465 13.6062H217.104C216.93 12.3896 216.548 11.3293 215.957 10.4255C215.4 9.48692 214.688 8.70477 213.819 8.07905C212.95 7.45333 211.976 6.98404 210.899 6.67119C209.821 6.35833 208.691 6.2019 207.509 6.2019C205.528 6.2019 203.807 6.60166 202.347 7.40119C200.922 8.20072 199.757 9.27835 198.854 10.6341C197.95 11.955 197.272 13.4672 196.82 15.1705C196.403 16.8739 196.194 18.612 196.194 20.3849C196.194 22.1577 196.403 23.8958 196.82 25.5992C197.272 27.3025 197.95 28.8321 198.854 30.1878C199.757 31.5088 200.922 32.569 202.347 33.3685C203.807 34.1681 205.528 34.5678 207.509 34.5678C209.178 34.6026 210.655 34.394 211.942 33.9421C213.228 33.4554 214.305 32.7776 215.174 31.9085C216.078 31.0047 216.756 29.9097 217.208 28.6235C217.66 27.3373 217.903 25.912 217.938 24.3477H208.031V19.3941H223.882V39Z" fill="#7E13B1"/>
</svg>
